# xmcd
#
# Track frame offsets: 
#        150
#        15709
#        29154
#        44038
#        54855
#        67771
#        81979
#        99978
#        111134
#        120541
#        135528
#        151520
#        165279
#        174543
#        188965
#        202637
#        215874
#        229657
#        245135
#        258382
#        270832
#        284458
#        299607
#
# Disc length: 4162 seconds
#
# Revision: 1
# Processed by: cddbd v1.5.2PL0 Copyright (c) Steve Scherf et al.
# Submitted via: ExactAudioCopyFreeDBPlugin 1.0
#
DISCID=43104017
DTITLE=Various Artist - Jazz Masterpieces [CD2]
DYEAR=2007
DGENRE=Jazz
TTITLE0=Buddy Rich - A Little Handicap
TTITLE1=Duke Ellington - Sophisticated Lady
TTITLE2=Woody Herman - Apple Honey
TTITLE3=Harry James - Trumpet Blues And Cantabile
TTITLE4=Louis Armstrong - St Louis Blues
TTITLE5=Gene Krupa - Drum Boogie
TTITLE6=Stan Kenton - Artistry In Rhythm
TTITLE7=Artie Shaw - Nightmare
TTITLE8=Louis Armstrong - Royal Garden Blues
TTITLE9=Benny Goodman - King Porter Stomp
TTITLE10=Tommy Dorsey - There Are Such Things
TTITLE11=Count Basie - Sent For You Yesterday
TTITLE12=Jimmy Dorsey - So Rare
TTITLE13=Louis Armstrong - When The Saints Go Marching In
TTITLE14=Harry James - Cherry
TTITLE15=Count Basie - Rock A Bye Baby Basie
TTITLE16=Woody Herman - Caldonia
TTITLE17=Benny Goodman - Clarinet A La King
TTITLE18=Gene Krupa - Opus One
TTITLE19=Joe Liggins - Pink Champagne
TTITLE20=Count Basie - One O'clock Jump
TTITLE21=Buddy Rich - Lets Blow
TTITLE22=Louis Armstrong - C'est Si Bon
EXTD=YEAR: 2007
EXTT0=
EXTT1=
EXTT2=
EXTT3=
EXTT4=
EXTT5=
EXTT6=
EXTT7=
EXTT8=
EXTT9=
EXTT10=
EXTT11=
EXTT12=
EXTT13=
EXTT14=
EXTT15=
EXTT16=
EXTT17=
EXTT18=
EXTT19=
EXTT20=
EXTT21=
EXTT22=
PLAYORDER=
